<?xml version="1.0" ?><!-- Uploaded to: SVG Repo, www.svgrepo.com, Generator: SVG Repo Mixer Tools -->
<svg width="800px" height="800px" viewBox="0 0 64 64" data-name="Layer 1" id="Layer_1" xmlns="http://www.w3.org/2000/svg"><defs><style>.cls-1{fill:#231f20;}</style></defs><title/><path class="cls-1" d="M30.51,53.79A20.7,20.7,0,1,1,51.21,33.1,20.72,20.72,0,0,1,30.51,53.79Zm0-39.39a18.7,18.7,0,1,0,18.7,18.7A18.72,18.72,0,0,0,30.51,14.4Z"/><path class="cls-1" d="M30.51,45.79A12.7,12.7,0,1,1,43.21,33.1,12.71,12.71,0,0,1,30.51,45.79Zm0-23.39a10.7,10.7,0,1,0,10.7,10.7A10.71,10.71,0,0,0,30.51,22.4Z"/><path class="cls-1" d="M30.51,37.79a4.7,4.7,0,1,1,4.7-4.69A4.7,4.7,0,0,1,30.51,37.79Zm0-7.39a2.7,2.7,0,1,0,2.7,2.7A2.7,2.7,0,0,0,30.51,30.4Z"/><path class="cls-1" d="M30.51,34.1a1,1,0,0,1-.71-.29,1,1,0,0,1,0-1.42l16-16V11.21a1,1,0,0,1,2,0v5.6a1,1,0,0,1-.29.71L31.22,33.81A1,1,0,0,1,30.51,34.1Z"/><path class="cls-1" d="M53.19,17.81h-6.4a1,1,0,1,1,0-2h6.4a1,1,0,1,1,0,2Z"/></svg>