<svg width="1390" height="1956" viewBox="0 0 1390 1956" fill="none" xmlns="http://www.w3.org/2000/svg">
<path d="M574.826 23.858C882.807 -58.8003 1387.83 99.858 1387.83 99.858L1389.83 1888.86C1389.83 1888.86 1185.69 1953.38 1050.83 1954.86C866.373 1956.88 745.902 1944.78 591.826 1843.36C440.175 1743.53 358.097 1648.52 310.326 1473.36C251.678 1258.32 419.826 1059.36 430.326 915.358C440.826 771.358 447.326 748.358 336.326 652.858C225.326 557.358 11.7722 545.358 1.82574 474.858C-16.4744 345.148 106.453 279.53 206.826 195.358C328.314 93.4776 421.692 64.9571 574.826 23.858Z" fill="#F2FFFB"/>
</svg>
